<svg xmlns="http://www.w3.org/2000/svg"  viewBox="0 0 64 64" width="64px" height="64px"><path d="M 31.998047 2.9921875 C 24.125234 2.9921875 17.646096 9.146626 17.054688 16.884766 L 16 16.998047 L 16 19.998047 L 16.996094 19.998047 L 16.996094 31.628906 C 16.692459 31.634926 16.388455 31.729753 16.126953 31.925781 C 16.085953 31.956781 16.029984 32.000453 15.958984 32.064453 C 15.046984 32.897453 12.011719 36.668609 12.011719 50.349609 C 12.011719 50.659108 12.011081 51.046186 12.009766 51.419922 C 12.008565 51.444492 12.001953 51.467325 12.001953 51.492188 C 12.001953 51.582754 12.006255 51.681427 12.007812 51.775391 C 12.008034 51.821134 12.007404 51.856231 12.007812 51.902344 C 12.013812 52.474344 12.033469 53.102375 12.105469 53.734375 C 12.241469 54.946375 12.581312 56.408813 13.570312 57.507812 C 14.094746 58.089991 14.969528 58.157221 15.585938 57.695312 C 16.209155 58.180863 17.107602 58.106353 17.632812 57.503906 C 18.018621 57.062173 18.092244 56.459377 17.884766 55.951172 C 18.547324 55.776117 19.024883 55.175464 19.007812 54.46875 C 18.987813 53.64175 18.300656 52.985859 17.472656 53.005859 C 17.540656 53.004859 17.420125 53.011562 17.203125 52.976562 C 16.985125 52.940562 16.694344 52.865797 16.402344 52.716797 C 16.116344 52.572797 15.829844 52.35825 15.589844 52.03125 C 15.353001 51.710526 15.123528 51.225455 15.013672 50.482422 C 15.013817 50.43985 15.013672 50.394136 15.013672 50.351562 C 15.013672 42.167145 16.131834 37.997361 16.996094 35.980469 L 16.996094 45.113281 C 16.996094 49.433281 20.105266 53.05875 24.197266 53.84375 L 25.814453 58.955078 C 25.313094 59.49126 25.001953 60.205971 25.001953 60.998047 L 31 60.998047 C 31 60.207866 30.688705 59.494762 30.189453 58.958984 L 31.744141 54 L 32.259766 54 L 33.814453 58.955078 C 33.313203 59.49126 33.001953 60.205971 33.001953 60.998047 L 39 60.998047 C 39 60.208852 38.68966 59.496502 38.191406 58.960938 L 39.808594 53.841797 C 43.895594 53.050797 47 49.429281 47 45.113281 L 47 35.974609 C 47.865296 37.990499 48.986328 42.159724 48.986328 50.347656 C 48.986328 50.384115 48.986235 50.426125 48.986328 50.462891 C 48.877781 51.217988 48.645342 51.70748 48.40625 52.03125 C 48.16625 52.35725 47.88075 52.572797 47.59375 52.716797 C 47.30175 52.866797 47.011969 52.940562 46.792969 52.976562 C 46.575969 53.010563 46.455438 53.004859 46.523438 53.005859 C 45.695438 52.985859 45.008281 53.64175 44.988281 54.46875 C 44.971147 55.178094 45.451759 55.781262 46.109375 55.953125 C 45.903094 56.460845 45.978063 57.062849 46.363281 57.503906 C 46.8891 58.107052 47.789867 58.18079 48.414062 57.693359 C 49.028671 58.155981 49.901022 58.088232 50.425781 57.503906 C 51.415781 56.405906 51.754625 54.943469 51.890625 53.730469 C 51.962625 53.098469 51.985234 52.470438 51.990234 51.898438 C 51.990631 51.853925 51.990002 51.819771 51.990234 51.775391 C 51.99176 51.681594 51.996094 51.58281 51.996094 51.492188 C 51.996094 51.467325 51.989484 51.444492 51.988281 51.419922 C 51.987279 51.042026 51.986328 50.649122 51.986328 50.347656 C 51.986328 36.670656 48.950109 32.8975 48.037109 32.0625 C 47.966109 31.9985 47.910141 31.952875 47.869141 31.921875 C 47.607551 31.725782 47.303736 31.630834 47 31.625 L 47 19.998047 L 47.960938 19.998047 L 47.960938 16.998047 L 46.941406 16.888672 C 46.351618 9.1486285 39.870266 2.9912342 31.998047 2.9921875 z M 31.998047 5.9921875 C 38.093123 5.9921875 43.168578 10.630197 43.900391 16.5625 L 38.708984 16.005859 C 37.849902 13.112817 35.173729 10.998047 32.005859 10.998047 C 28.838491 10.998047 26.165218 13.109969 25.304688 16 L 20.099609 16.558594 C 20.832905 10.628276 25.901616 5.9921875 31.998047 5.9921875 z M 32.005859 12.998047 C 34.760859 12.998047 37 15.238047 37 17.998047 C 37 20.759047 34.760859 22.998047 32.005859 22.998047 C 29.249859 22.998047 27.009766 20.759047 27.009766 17.998047 C 27.009766 15.238047 29.249859 12.998047 32.005859 12.998047 z M 30.998047 17 C 29.894047 17 28.998047 17.896 28.998047 19 C 28.998047 20.104 29.894047 21 30.998047 21 C 32.102047 21 32.998047 20.104 32.998047 19 C 32.998047 17.896 32.102047 17 30.998047 17 z M 19.998047 19.998047 L 25.304688 19.998047 C 26.165218 22.888388 28.838491 24.998047 32.005859 24.998047 C 35.171587 24.998047 37.84607 22.888388 38.707031 19.998047 L 44 19.998047 L 44 34 L 38.685547 36.998047 L 25.3125 36.998047 L 19.998047 34.017578 L 19.998047 19.998047 z M 27.652344 29.878906 L 26.335938 31.382812 C 26.480937 31.509812 28.271094 32.996094 31.996094 32.996094 C 35.719094 32.996094 37.510297 31.507812 37.654297 31.382812 L 36.339844 29.878906 C 36.407844 29.818906 36.107391 30.095625 35.400391 30.390625 C 34.697391 30.682625 33.577094 30.996094 31.996094 30.996094 C 30.412094 30.996094 29.292844 30.682625 28.589844 30.390625 C 27.884844 30.096625 27.584344 29.818906 27.652344 29.878906 z M 44 36.4375 L 44 45.113281 C 44 45.246281 43.994328 45.377813 43.986328 45.507812 C 43.970328 45.511812 43.954453 45.517484 43.939453 45.521484 C 43.403453 45.680484 42.792219 45.788375 42.199219 45.859375 C 41.902219 45.895375 41.616469 45.922406 41.355469 45.941406 L 41.007812 45.964844 L 41.007812 39.517578 L 44 36.4375 z M 19.998047 36.447266 L 22.990234 39.519531 L 22.990234 45.964844 L 22.632812 45.941406 C 22.368813 45.923406 22.082203 45.895375 21.783203 45.859375 C 21.186203 45.787375 20.568344 45.680484 20.027344 45.521484 C 20.023944 45.521484 20.019025 45.518626 20.015625 45.517578 L 19.998047 45.113281 L 19.998047 36.447266 z"/></svg>